<svg width="15" height="15" viewBox="0 0 18 18" fill="none" xmlns="http://www.w3.org/2000/svg">
<path d="M9.8837 1.11625L9.88367 1.11623C9.64926 0.881888 9.33137 0.750244 8.99992 0.750244C8.66846 0.750244 8.35058 0.881888 8.11617 1.11623L8.11614 1.11625L1.11614 8.11625L1.11612 8.11623L1.1131 8.11935C0.885399 8.35511 0.759406 8.67086 0.762254 8.9986C0.765102 9.32635 0.896563 9.63987 1.12832 9.87163C1.36008 10.1034 1.6736 10.2348 2.00135 10.2377C2.27177 10.24 2.53403 10.1547 2.74992 9.99685V16C2.74992 16.3316 2.88162 16.6495 3.11604 16.8839C3.35046 17.1183 3.6684 17.25 3.99992 17.25H5.99992C6.33144 17.25 6.64938 17.1183 6.8838 16.8839C7.11822 16.6495 7.24992 16.3316 7.24992 16V14C7.24992 13.8011 7.32894 13.6104 7.46959 13.4697C7.61024 13.329 7.80101 13.25 7.99992 13.25H9.99992C10.1988 13.25 10.3896 13.329 10.5302 13.4697C10.6709 13.6104 10.7499 13.8011 10.7499 14V16C10.7499 16.3316 10.8816 16.6495 11.116 16.8839C11.3505 17.1183 11.6684 17.25 11.9999 17.25H13.9999C14.3314 17.25 14.6494 17.1183 14.8838 16.8839C15.1182 16.6495 15.2499 16.3316 15.2499 16V9.99685C15.4658 10.1547 15.7281 10.24 15.9985 10.2377C16.3262 10.2348 16.6398 10.1034 16.8715 9.87163C17.1033 9.63987 17.2347 9.32635 17.2376 8.9986C17.2404 8.67086 17.1144 8.35511 16.8867 8.11935L16.8868 8.11933L16.8837 8.11625L9.8837 1.11625Z" fill="white" stroke="white" stroke-width="0.5"/>
</svg>
