<svg width="42" height="43" viewBox="0 0 42 43" fill="none" xmlns="http://www.w3.org/2000/svg">
<g clip-path="url(#clip0_104_537)">
<path d="M14.6311 1.88142C10.4346 3.3372 6.81562 6.10034 4.30562 9.76495C1.79562 13.4296 0.526938 17.8025 0.685917 22.2415C0.844897 26.6804 2.42316 30.9514 5.18889 34.427C7.95462 37.9027 11.762 40.3999 16.0519 41.5517C19.5297 42.4491 23.1735 42.4885 26.67 41.6666C29.8374 40.9551 32.7658 39.4332 35.1684 37.25C37.669 34.9083 39.4841 31.9294 40.4184 28.6334C41.4337 25.0492 41.6144 21.28 40.9467 17.615H21.4167V25.7164H32.7272C32.5011 27.0085 32.0167 28.2418 31.303 29.3423C30.5892 30.4428 29.6607 31.3881 28.5731 32.1214C27.1922 33.0354 25.6352 33.6501 24.0023 33.9261C22.3648 34.2307 20.6852 34.2307 19.0477 33.9261C17.3878 33.5833 15.8177 32.8983 14.4375 31.9147C12.2199 30.3449 10.5547 28.1148 9.67968 25.5425C8.7901 22.922 8.7901 20.0813 9.67968 17.4608C10.3026 15.624 11.3322 13.9516 12.6919 12.5684C14.2478 10.9565 16.2177 9.80431 18.3854 9.23823C20.553 8.67214 22.8347 8.71406 24.9802 9.35938C26.6562 9.87363 28.1889 10.7725 29.4558 11.9844C30.7311 10.7156 32.0042 9.4436 33.2752 8.16829C33.9314 7.48251 34.6467 6.82954 35.2931 6.12735C33.3589 4.32765 31.0887 2.92716 28.6125 2.0061C24.1031 0.368726 19.169 0.324723 14.6311 1.88142Z" fill="white"/>
<path d="M14.6311 1.88139C19.1686 0.323642 24.1027 0.366487 28.6125 2.0028C31.0892 2.93012 33.3584 4.33734 35.2899 6.14374C34.6336 6.84592 33.9413 7.50217 33.2719 8.18467C31.9988 9.45561 30.7267 10.7222 29.4558 11.9844C28.1889 10.7725 26.6562 9.87361 24.9802 9.35936C22.8355 8.71178 20.5538 8.66744 18.3856 9.2312C16.2173 9.79497 14.2463 10.9451 12.6886 12.5553C11.329 13.9385 10.2993 15.6109 9.67642 17.4476L2.87439 12.1812C5.3091 7.35308 9.52466 3.65991 14.6311 1.88139Z" fill="#E33629"/>
<path d="M1.06971 17.3984C1.43504 15.5864 2.04203 13.8317 2.87439 12.1812L9.67643 17.4608C8.78684 20.0812 8.78684 22.922 9.67643 25.5425C7.41018 27.2925 5.14283 29.0512 2.87439 30.8187C0.791296 26.6723 0.155986 21.9479 1.06971 17.3984Z" fill="#F8BD00"/>
<path d="M21.4167 17.6117H40.9467C41.6144 21.2767 41.4337 25.0459 40.4185 28.6302C39.4841 31.9261 37.669 34.9051 35.1685 37.2467C32.9733 35.5339 30.7683 33.8342 28.5731 32.1214C29.6615 31.3873 30.5904 30.4411 31.3042 29.3393C32.018 28.2376 32.502 27.0031 32.7272 25.7099H21.4167C21.4135 23.0127 21.4167 20.3122 21.4167 17.6117Z" fill="#587DBD"/>
<path d="M2.87109 30.8188C5.13953 29.0688 7.40687 27.31 9.67312 25.5425C10.5499 28.1157 12.2174 30.3459 14.4375 31.9147C15.822 32.8937 17.3955 33.5732 19.0575 33.9097C20.695 34.2143 22.3747 34.2143 24.0122 33.9097C25.645 33.6337 27.202 33.019 28.583 32.105C30.7781 33.8178 32.9831 35.5175 35.1783 37.2303C32.776 39.4147 29.8476 40.9377 26.6798 41.6502C23.1834 42.4721 19.5396 42.4327 16.0617 41.5353C13.3111 40.8009 10.7417 39.5062 8.51484 37.7324C6.15801 35.8608 4.23293 33.5026 2.87109 30.8188Z" fill="#319F43"/>
</g>
<defs>
<clipPath id="clip0_104_537">
<rect width="42" height="42" fill="white" transform="translate(0 0.5)"/>
</clipPath>
</defs>
</svg>
