<svg width="50" height="50" viewBox="0 0 50 50" fill="none" xmlns="http://www.w3.org/2000/svg">
<g filter="url(#filter0_b_102_243)">
<rect width="50" height="50" fill="url(#paint0_linear_102_243)"/>
<path opacity="0.6" d="M17.2112 18.9424C16.7761 19.3775 16.4309 19.8941 16.1953 20.4627C15.9598 21.0313 15.8386 21.6407 15.8386 22.2561C15.8386 22.8715 15.9598 23.4809 16.1953 24.0494C16.4309 24.618 16.7761 25.1346 17.2112 25.5698L25.2112 33.5698L33.2112 25.5698C34.09 24.6909 34.5838 23.499 34.5838 22.2561C34.5838 21.0132 34.09 19.8212 33.2112 18.9424C32.3323 18.0635 31.1404 17.5698 29.8975 17.5698C28.6546 17.5698 27.4626 18.0635 26.5838 18.9424L25.2112 20.3149L23.8386 18.9424C23.4035 18.5072 22.8869 18.162 22.3183 17.9265C21.7497 17.691 21.1403 17.5698 20.5249 17.5698C19.9095 17.5698 19.3001 17.691 18.7316 17.9265C18.163 18.162 17.6464 18.5072 17.2112 18.9424Z" stroke="white" stroke-width="2.08279" stroke-linecap="round" stroke-linejoin="round"/>
</g>
<defs>
<filter id="filter0_b_102_243" x="-80" y="-80" width="210" height="210" filterUnits="userSpaceOnUse" color-interpolation-filters="sRGB">
<feFlood flood-opacity="0" result="BackgroundImageFix"/>
<feGaussianBlur in="BackgroundImageFix" stdDeviation="40"/>
<feComposite in2="SourceAlpha" operator="in" result="effect1_backgroundBlur_102_243"/>
<feBlend mode="normal" in="SourceGraphic" in2="effect1_backgroundBlur_102_243" result="shape"/>
</filter>
<linearGradient id="paint0_linear_102_243" x1="0" y1="0" x2="60.3603" y2="25.456" gradientUnits="userSpaceOnUse">
<stop stop-color="#A838FF" stop-opacity="0.4"/>
<stop offset="1" stop-color="white" stop-opacity="0.4"/>
</linearGradient>
</defs>
</svg>
